# xmcd CD database file generated by OrangeCD 6.4
#
# Track frame offsets:
#	150
#	17772
#	32892
#	51547
#	68965
#	88295
#	107470
#	129680
#	145737
#	161807
#
# Disc length: 2340 seconds
#
# Revision: 0
# Processed by: cddbd v1.5.2PL0 Copyright (c) Steve Scherf et al.
# Submitted via: OrangeCD 6.4
#
DISCID=9109220a
DTITLE=Pepe Willberg - Tulit Valona Maailmaan
DYEAR=1990
DGENRE=Iskelm‰
TTITLE0=Tulit valona maailmaan
TTITLE1=Kaarnalaiva
TTITLE2=Pilven selk‰‰n nousin
TTITLE3=Uneesi kauneimpaan
TTITLE4=Kuivuneet kyyneleet
TTITLE5=Pienen pieni s‰vel
TTITLE6=Aika
TTITLE7=El‰m‰n virta ja voima
TTITLE8=Aito rakkaus
TTITLE9=Rakkauden laulut
EXTD=
EXTT0=
EXTT1=
EXTT2=
EXTT3=
EXTT4=
EXTT5=
EXTT6=
EXTT7=
EXTT8=
EXTT9=
PLAYORDER=
